<?xml version="1.0" encoding="utf-8"?>
<!-- Generator: Adobe Illustrator 19.0.0, SVG Export Plug-In . SVG Version: 6.00 Build 0)  -->
<svg version="1.1" id="Camada_1" xmlns="http://www.w3.org/2000/svg" xmlns:xlink="http://www.w3.org/1999/xlink" x="0px" y="0px"
	 viewBox="-25 24 17.8 9" style="enable-background:new -25 24 17.8 9;" xml:space="preserve">
<style type="text/css">
	.st0{fill:#00ADEF;}
</style>
<path class="st0" d="M-16.1,25.8l7.5,6.7c0.1,0.1,0.2,0.1,0.3,0.1c0.1,0,0.2-0.2,0.3-0.3c0.1-0.3,0-0.6-0.2-0.8l-7.7-7
	c-0.1-0.1-0.3-0.1-0.5,0l-7.7,7c-0.1,0.1-0.2,0.3-0.2,0.5c0,0.1,0,0.2,0,0.3c0.1,0.2,0.2,0.3,0.3,0.3c0.1,0,0.2,0,0.3-0.1
	L-16.1,25.8z"/>
</svg>
