<?xml version="1.0" encoding="utf-8"?>
<!-- Generator: Adobe Illustrator 19.0.0, SVG Export Plug-In . SVG Version: 6.00 Build 0)  -->
<svg version="1.1" id="icons" xmlns="http://www.w3.org/2000/svg" xmlns:xlink="http://www.w3.org/1999/xlink" x="0px" y="0px"
	 viewBox="0 0 68 68.2" style="enable-background:new 0 0 68 68.2;" xml:space="preserve">
<style type="text/css">
	.st0{fill:#FFFFFF;}
</style>
<g>
	<g>
		<path class="st0" d="M34.1,50.8c-5.8,0-9.6-3.2-9.6-8.1c0-0.6,0.4-1,1-1c0.6,0,1,0.4,1,1c0,4.5,3.9,6.1,7.6,6.1
			c3.7,0,7.6-1.6,7.6-6.1c0-3.7-1.9-4.7-6.7-7l-2.7-1.3c-4.8-2.4-7.8-3.8-7.8-8.8c0-4.9,3.8-8.2,9.6-8.2c5.7,0,9.5,3.2,9.5,8.2
			c0,0.6-0.4,1-1,1c-0.6,0-1-0.4-1-1c0-4.6-3.8-6.2-7.5-6.2c-3.7,0-7.6,1.6-7.6,6.2c0,3.7,2,4.7,6.7,7l2.7,1.3
			c4.8,2.4,7.8,3.8,7.8,8.8C43.7,47.6,39.9,50.8,34.1,50.8z"/>
		<path class="st0" d="M34.1,19.3c-0.6,0-1-0.4-1-1v-4.2c0-0.6,0.4-1,1-1c0.6,0,1,0.4,1,1v4.2C35.1,18.9,34.7,19.3,34.1,19.3z"/>
		<path class="st0" d="M34.1,55.1c-0.6,0-1-0.4-1-1v-4.3c0-0.6,0.4-1,1-1c0.6,0,1,0.4,1,1v4.3C35.1,54.7,34.7,55.1,34.1,55.1z"/>
	</g>
	<path class="st0" d="M34,6.1c15.4,0,28,12.6,28,28c0,15.4-12.6,28-28,28c-15.4,0-28-12.6-28-28C6,18.7,18.6,6.1,34,6.1 M34,4.1
		c-16.6,0-30,13.4-30,30c0,16.6,13.4,30,30,30c16.6,0,30-13.4,30-30C64,17.5,50.6,4.1,34,4.1L34,4.1z"/>
</g>
</svg>
