<?xml version="1.0" encoding="utf-8"?>
<!-- Generator: Adobe Illustrator 19.0.0, SVG Export Plug-In . SVG Version: 6.00 Build 0)  -->
<svg version="1.1" id="icons" xmlns="http://www.w3.org/2000/svg" xmlns:xlink="http://www.w3.org/1999/xlink" x="0px" y="0px"
	 viewBox="0 0 68 68.2" style="enable-background:new 0 0 68 68.2;" xml:space="preserve">
<style type="text/css">
	.st0{fill:#FFFFFF;}
</style>
<g>
	<path class="st0" d="M59,3.1H32.7c-0.3,0-0.5,0.1-0.7,0.3l-3.6,3.7h-1.7c-0.3,0-0.5,0.1-0.7,0.3l-2.7,3c-0.2,0.2-0.3,0.4-0.3,0.7
		h-2.7c-0.3,0-0.6,0.1-0.8,0.3l-11.2,13C8.1,24.6,8,24.8,8,25.1v39c0,0.6,0.4,1,1,1h42c0.6,0,1-0.4,1-1v-3h2.9c0.6,0,1-0.4,1-1v-3
		c0,0,0.1,0,0.1,0h3c0.6,0,1-0.4,1-1v-52C60,3.5,59.6,3.1,59,3.1z M20,13.9v11.2h-9.7L20,13.9z M50,63.1H10v-36h11c0.6,0,1-0.4,1-1
		v-13h28V63.1z M53.9,59.1H52v-47c0-0.6-0.4-1-1-1H25.3l1.8-2h26.8V59.1z M58,55.1h-2c0,0-0.1,0-0.1,0v-47c0-0.6-0.4-1-1-1H31.2l2-2
		H58V55.1z"/>
	<path class="st0" d="M15.5,36.1c0,0.6,0.4,1,1,1h28c0.6,0,1-0.4,1-1s-0.4-1-1-1h-28C16,35.1,15.5,35.5,15.5,36.1z"/>
	<path class="st0" d="M44.5,43.1h-28c-0.6,0-1,0.4-1,1s0.4,1,1,1h28c0.6,0,1-0.4,1-1S45.1,43.1,44.5,43.1z"/>
	<path class="st0" d="M44.5,51.1h-28c-0.6,0-1,0.4-1,1s0.4,1,1,1h28c0.6,0,1-0.4,1-1S45.1,51.1,44.5,51.1z"/>
</g>
</svg>
