<?xml version="1.0" encoding="utf-8"?>
<!-- Generator: Adobe Illustrator 19.0.0, SVG Export Plug-In . SVG Version: 6.00 Build 0)  -->
<svg version="1.1" id="icons" xmlns="http://www.w3.org/2000/svg" xmlns:xlink="http://www.w3.org/1999/xlink" x="0px" y="0px"
	 viewBox="0 0 68 68.2" style="enable-background:new 0 0 68 68.2;" xml:space="preserve">
<style type="text/css">
	.st0{fill:#FFFFFF;}
</style>
<path class="st0" d="M60.1,22.1c2.5-2.5,3.5-6.2,2.6-9.6c-0.2-0.6-1.1-0.9-1.6-0.4L56,17.1l-3.7-1.3L51,12.2l5.1-5.1
	c0.4-0.5,0.2-1.4-0.4-1.6c-0.9-0.2-1.8-0.4-2.6-0.4c-2.6,0-5.1,1.1-7,2.9c-2.4,2.4-3.2,5.7-2.6,8.9l-9.8,9.8l-1.1-1.1
	c0,0,0,0-0.1-0.1c-0.4-0.3-1-0.3-1.4,0.1l-2.1,2.1L16.3,15l1.4-1.4c0.4-0.4,0.3-1.2-0.1-1.5l-4.9-3.5c-0.2-0.2-0.6-0.3-0.9-0.2
	c-0.2,0-0.3,0.1-0.4,0.3l-2.8,2.9c-0.3,0.3-0.4,0.9-0.1,1.3l3.6,4.9c0.3,0.5,1.1,0.5,1.5,0.1l1.4-1.4l12.7,12.7l-2.1,2.1
	c-0.4,0.4-0.4,1.1,0,1.4l1.1,1.1l-9.8,9.8c-3.1-0.6-6.5,0.1-8.9,2.6c-2.5,2.5-3.5,6.2-2.6,9.6c0.2,0.6,1.1,0.9,1.6,0.4l5.1-5.1
	l3.7,1.3l1.3,3.7l-5.1,5.1c-0.4,0.5-0.2,1.4,0.4,1.6c3.4,0.9,7.1,0,9.6-2.6c2.4-2.4,3.2-5.7,2.6-8.9l8.4-8.4l16.6,16.6
	c0.4,0.4,1.1,0.4,1.4,0l2.1-2.1l1.4-1.4l2.4-2.4l0.4-0.4l2.1-2.1c0.3-0.4,0.3-1,0-1.4L42.8,33.1l8.4-8.4
	C54.3,25.3,57.7,24.5,60.1,22.1z M12.9,15.5l-2.4-3.3l1.6-1.6l3.3,2.3L12.9,15.5z M31.9,27.7l0.9,0.9l0.4,0.4l-1.4,1.4l-2.8,2.8
	l-0.4-0.3c0,0-0.1-0.1-0.1-0.1L27.6,32L31.9,27.7z M22.9,50.2c-0.2,0.2-0.3,0.6-0.3,0.9c0.7,2.7,0,5.6-2.1,7.7
	c-1.5,1.5-3.6,2.1-5.7,2.1l3.9-3.9c0.3-0.3,0.4-0.7,0.3-1l-1.6-4.8c-0.1-0.3-0.3-0.5-0.6-0.6l-4.8-1.6c-0.3-0.1-0.7,0-1,0.3
	l-3.9,3.9c0-2.1,0.6-4.2,2.1-5.7c2.1-2.1,5-2.8,7.7-2.1c0.3,0.1,0.7,0,0.9-0.3l8.7-8.7c0,0.1,0.1,0.2,0.1,0.3c0,0,0.1,0.1,0.1,0.1
	c0,0,0,0,0,0.1c0,0,0,0,0.1,0l4.6,4.6L22.9,50.2z M50.3,57.4L33.7,40.9c0,0,0,0-0.1-0.1l-4.6-4.6l0.6-0.6c0,0,0,0,0.1-0.1l0.1-0.1
	c0,0,0,0,0.1-0.1l0.7-0.6L51.7,56L50.3,57.4z M53.1,54.6L31.9,33.4l0.8-0.8l0.7-0.7l21.2,21.2L53.1,54.6z M57.4,50.4L56,51.8
	L34.8,30.6l1.4-1.4l4.6,4.6c0.1,0.1,0.2,0.1,0.3,0.2L57.4,50.4z M50.1,23l-8.6,8.6c-1.5-1.5-5-4.9-5-4.9l8.6-8.7
	c0.2-0.2,0.3-0.6,0.3-0.9c-0.7-2.7,0-5.6,2.1-7.7c1.5-1.5,3.6-2.3,5.6-2.3c0.1,0,0.2,0.1,0.3,0.1l-4.1,4.1c-0.3,0.3-0.4,0.7-0.3,1
	l1.6,4.8c0.1,0.3,0.3,0.5,0.6,0.6l4.8,1.6c0.3,0.1,0.7,0,1-0.3l3.9-3.9c0,2.1-0.6,4.2-2.1,5.7c-2.1,2.1-5,2.8-7.7,2.1
	C50.7,22.7,50.3,22.8,50.1,23z"/>
</svg>
