<?xml version="1.0" encoding="utf-8"?>
<!-- Generator: Adobe Illustrator 19.0.0, SVG Export Plug-In . SVG Version: 6.00 Build 0)  -->
<svg version="1.1" id="Layer_1" xmlns="http://www.w3.org/2000/svg" xmlns:xlink="http://www.w3.org/1999/xlink" x="0px" y="0px"
	 viewBox="0 0 26.3 46.8" style="enable-background:new 0 0 26.3 46.8;" xml:space="preserve">
<style type="text/css">
	.st0{fill:#00ADEF;}
</style>
<path class="st0" d="M24.8,43.6L5,23.8L24.8,3.9c0.6-0.6,0.6-1.5,0-2.1c-0.6-0.6-1.6-0.6-2.1,0L1.8,22.7c-0.3,0.3-0.4,0.7-0.4,1.1
	c0,0.4,0.2,0.8,0.4,1.1l20.9,20.9c0.3,0.3,0.7,0.4,1.1,0.4c0.4,0,0.8-0.2,1.1-0.4c0.3-0.3,0.4-0.7,0.4-1.1
	C25.3,44.3,25.1,43.9,24.8,43.6z"/>
</svg>
