<?xml version="1.0" encoding="utf-8"?>
<!-- Generator: Adobe Illustrator 19.0.0, SVG Export Plug-In . SVG Version: 6.00 Build 0)  -->
<svg version="1.1" id="Layer_1" xmlns="http://www.w3.org/2000/svg" xmlns:xlink="http://www.w3.org/1999/xlink" x="0px" y="0px"
	 viewBox="0 0 26.5 46.8" style="enable-background:new 0 0 26.5 46.8;" xml:space="preserve">
<style type="text/css">
	.st0{fill:#00ADEF;}
</style>
<path class="st0" d="M2,3.5l19.8,19.8L2,43.2c-0.6,0.6-0.6,1.5,0,2.1c0.6,0.6,1.6,0.6,2.1,0l20.9-20.9c0.3-0.3,0.4-0.7,0.4-1.1
	c0-0.4-0.2-0.8-0.4-1.1L4.2,1.4C3.9,1.1,3.5,1,3.1,1C2.7,1,2.3,1.1,2,1.4C1.7,1.7,1.6,2.1,1.6,2.5C1.6,2.9,1.7,3.2,2,3.5z"/>
</svg>
