<?xml version="1.0" encoding="utf-8"?>
<!-- Generator: Adobe Illustrator 21.0.0, SVG Export Plug-In . SVG Version: 6.00 Build 0)  -->
<svg version="1.1" id="Camada_1" xmlns="http://www.w3.org/2000/svg" xmlns:xlink="http://www.w3.org/1999/xlink" x="0px" y="0px"
	 viewBox="0 0 13 17" style="enable-background:new 0 0 13 17;" xml:space="preserve">
<style type="text/css">
	.st0{fill:#00ADEF;}
</style>
<path class="st0" d="M3.8,8.5L10.5,1c0.1-0.1,0.1-0.2,0.1-0.3c0-0.1-0.2-0.2-0.3-0.3c-0.3-0.1-0.6,0-0.8,0.2l-7,7.7
	c-0.1,0.1-0.1,0.3,0,0.5l7,7.7c0.1,0.1,0.3,0.2,0.5,0.2c0.1,0,0.2,0,0.3,0c0.2-0.1,0.3-0.2,0.3-0.3c0-0.1,0-0.2-0.1-0.3L3.8,8.5z"/>
</svg>
