<?xml version="1.0" encoding="utf-8"?>
<!-- Generator: Adobe Illustrator 19.0.0, SVG Export Plug-In . SVG Version: 6.00 Build 0)  -->
<svg version="1.1" id="_x2014_ÎÓÈ_x5F_1" xmlns="http://www.w3.org/2000/svg" xmlns:xlink="http://www.w3.org/1999/xlink"
	 x="0px" y="0px" viewBox="0 0 573 234" style="enable-background:new 0 0 573 234;" xml:space="preserve">
<style type="text/css">
	.st0{opacity:0.2;fill:#414042;}
	.st1{fill:#B8DAF5;}
	.st2{fill:#E7F2FC;}
	.st3{fill:#9ABFD8;}
	.st4{fill:#FFFFFF;}
	.st5{fill:#D5E7EF;}
	.st6{fill:#FAFAFA;}
	.st7{fill:#1E193D;}
	.st8{fill:#EFCE7D;}
	.st9{fill:#AD3535;}
	.st10{fill:#D1D3D4;}
	.st11{fill:#97B9C9;}
	.st12{fill:#F9FAFC;}
	.st13{fill:#F5B624;}
	.st14{fill:#939598;}
	.st15{fill:#EF4136;}
	.st16{fill:#F7A26C;}
	.st17{fill:#414042;}
	.st18{fill:#FFBE24;}
	.st19{fill:#C49120;}
	.st20{fill:#3B4A54;}
	.st21{fill:#51A8B7;}
	.st22{fill:#E6E7E8;}
	.st23{fill:#B8B9BA;}
	.st24{fill:#525154;}
	.st25{fill:#809BB0;}
	.st26{fill:#A08585;}
	.st27{fill:#D69D9D;stroke:#51A8B7;stroke-miterlimit:10;}
	.st28{fill:#C7D9DD;stroke:#51A8B7;stroke-miterlimit:10;}
	.st29{fill:#65798A;}
	.st30{fill:#7D7E81;}
	.st31{fill:#656668;}
	.st32{fill:#4D4D4D;}
	.st33{fill:#545456;}
	.st34{fill:#80B7AF;}
	.st35{fill:#D94547;}
</style>
<g>
	<g>
		<g>
			<g>
				<g>
					
						<rect x="223.9" y="21.6" transform="matrix(0.9869 -0.1613 0.1613 0.9869 -15.1386 47.7503)" class="st0" width="125.3" height="191"/>
					
						<rect x="222.7" y="19.6" transform="matrix(0.9869 -0.1613 0.1613 0.9869 -14.8386 47.5388)" class="st1" width="125.3" height="191"/>
				</g>
			</g>
			<g>
				
					<rect x="217.8" y="23.4" transform="matrix(0.9782 -0.2076 0.2076 0.9782 -18.5745 60.8)" class="st0" width="125.3" height="191"/>
				
					<rect x="215.7" y="21.7" transform="matrix(0.9782 -0.2076 0.2076 0.9782 -18.2689 60.3315)" class="st2" width="125.3" height="191"/>
			</g>
			<g>
				
					<rect x="216.5" y="25.7" transform="matrix(0.9877 -0.1563 0.1563 0.9877 -15.5113 45.1099)" class="st0" width="125.3" height="191"/>
				
					<rect x="215.3" y="23.7" transform="matrix(0.9877 -0.1563 0.1563 0.9877 -15.2191 44.9073)" class="st1" width="125.3" height="191"/>
			</g>
			
				<rect x="215.2" y="22.7" transform="matrix(0.9582 -0.2862 0.2862 0.9582 -22.2242 84.4423)" class="st0" width="125.3" height="191"/>
			<g>
				
					<rect x="212.3" y="20.2" transform="matrix(0.9582 -0.2862 0.2862 0.9582 -21.6201 83.5258)" class="st1" width="125.3" height="191"/>
				
					<rect x="231.4" y="29.8" transform="matrix(0.9582 -0.2862 0.2862 0.9582 1.0081 71.499)" class="st3" width="27.5" height="4.9"/>
				
					<rect x="231.8" y="32.8" transform="matrix(0.9582 -0.2862 0.2862 0.9582 -0.2537 68.7855)" class="st3" width="6.8" height="4.9"/>
				
					<rect x="210.2" y="52" transform="matrix(0.9582 -0.2862 0.2862 0.9582 -6.6434 63.3992)" class="st3" width="6.8" height="4.9"/>
				
					<rect x="220.7" y="46.7" transform="matrix(0.9582 -0.2862 0.2862 0.9582 -4.4124 68.1945)" class="st3" width="20.9" height="4.9"/>
				
					<rect x="245.3" y="40.3" transform="matrix(0.9582 -0.2862 0.2862 0.9582 -1.6761 74.078)" class="st3" width="14.7" height="4.9"/>
				
					<rect x="266.4" y="33.1" transform="matrix(0.9582 -0.2862 0.2862 0.9582 1.4089 80.711)" class="st3" width="21" height="4.9"/>
				
					<rect x="289.7" y="27.1" transform="matrix(0.9582 -0.2862 0.2862 0.9582 3.9631 86.203)" class="st3" width="14.4" height="4.9"/>
				
					<rect x="205.3" y="63.8" transform="matrix(0.9582 -0.2862 0.2862 0.9582 -10.2281 62.4954)" class="st3" width="6.8" height="4.9"/>
				<g>
					
						<rect x="209.1" y="75.1" transform="matrix(0.9582 -0.2862 0.2862 0.9582 -12.8278 66.9436)" class="st3" width="27.1" height="4.5"/>
					
						<rect x="237.2" y="67.9" transform="matrix(0.9582 -0.2862 0.2862 0.9582 -9.7688 73.522)" class="st3" width="18.9" height="4.5"/>
					
						<rect x="258.2" y="60.4" transform="matrix(0.9582 -0.2862 0.2862 0.9582 -6.5826 80.3727)" class="st3" width="27.1" height="4.5"/>
					
						<rect x="211.3" y="81.8" transform="matrix(0.9582 -0.2862 0.2862 0.9582 -14.4997 68.9947)" class="st3" width="35.1" height="4.5"/>
					
						<rect x="247.5" y="72.2" transform="matrix(0.9582 -0.2862 0.2862 0.9582 -10.3927 77.8253)" class="st3" width="27.1" height="4.5"/>
					
						<rect x="214.1" y="93.1" transform="matrix(0.9582 -0.2862 0.2862 0.9582 -18.077 66.949)" class="st3" width="11.8" height="4.5"/>
					
						<rect x="226.6" y="85.5" transform="matrix(0.9582 -0.2862 0.2862 0.9582 -14.8485 73.8908)" class="st3" width="37.7" height="4.5"/>
					
						<rect x="265.1" y="74" transform="matrix(0.9582 -0.2862 0.2862 0.9582 -9.9453 84.4337)" class="st3" width="37.7" height="4.5"/>
					
						<rect x="216.2" y="98.8" transform="matrix(0.9582 -0.2862 0.2862 0.9582 -19.3042 69.9555)" class="st3" width="27.1" height="4.5"/>
					
						<rect x="244" y="90" transform="matrix(0.9582 -0.2862 0.2862 0.9582 -15.5713 77.9819)" class="st3" width="30" height="4.5"/>
					
						<rect x="218.7" y="107.7" transform="matrix(0.9582 -0.2862 0.2862 0.9582 -21.9218 69.974)" class="st3" width="19.6" height="4.5"/>
					
						<rect x="249.5" y="97.4" transform="matrix(0.9582 -0.2862 0.2862 0.9582 -17.5149 79.4497)" class="st3" width="27.1" height="4.5"/>
					
						<rect x="239.9" y="103.2" transform="matrix(0.9582 -0.2862 0.2862 0.9582 -20.0024 74.1011)" class="st3" width="7.3" height="4.5"/>
					
						<rect x="231.8" y="112.5" transform="matrix(0.9582 -0.2862 0.2862 0.9582 -22.7538 73.8294)" class="st3" width="18.9" height="4.5"/>
					
						<rect x="251.9" y="105.3" transform="matrix(0.9582 -0.2862 0.2862 0.9582 -19.6736 80.4529)" class="st3" width="27.1" height="4.5"/>
					
						<rect x="221.3" y="117.4" transform="matrix(0.9582 -0.2862 0.2862 0.9582 -24.8287 69.3695)" class="st3" width="7.3" height="4.5"/>
					
						<rect x="223.1" y="123" transform="matrix(0.9582 -0.2862 0.2862 0.9582 -26.1951 71.2774)" class="st3" width="15.3" height="4.5"/>
					
						<rect x="239.8" y="116.9" transform="matrix(0.9582 -0.2862 0.2862 0.9582 -23.5807 76.8996)" class="st3" width="23.1" height="4.5"/>
					
						<rect x="263.7" y="108.1" transform="matrix(0.9582 -0.2862 0.2862 0.9582 -19.8448 84.933)" class="st3" width="33.9" height="4.5"/>
					
						<rect x="253.7" y="123.1" transform="matrix(0.9582 -0.2862 0.2862 0.9582 -24.8805 80.5499)" class="st3" width="18.9" height="4.5"/>
					
						<rect x="274" y="118.8" transform="matrix(0.9582 -0.2862 0.2862 0.9582 -23.0364 84.5151)" class="st3" width="7.3" height="4.5"/>
					
						<rect x="226" y="133.3" transform="matrix(0.9582 -0.2861 0.2861 0.9582 -29.2305 71.1934)" class="st3" width="5.9" height="4.5"/>
					
						<rect x="232.9" y="130.8" transform="matrix(0.9582 -0.2862 0.2862 0.9582 -28.1299 73.5613)" class="st3" width="9.4" height="4.5"/>
					
						<rect x="242.9" y="127.8" transform="matrix(0.9582 -0.2862 0.2862 0.9582 -26.8597 76.2925)" class="st3" width="9.4" height="4.5"/>
				</g>
				
					<rect x="215.8" y="58.5" transform="matrix(0.9582 -0.2862 0.2862 0.9582 -7.9971 67.2925)" class="st3" width="20.9" height="4.9"/>
				
					<rect x="240.6" y="53.4" transform="matrix(0.9582 -0.2862 0.2862 0.9582 -5.8202 71.9731)" class="st3" width="5.5" height="4.9"/>
				
					<rect x="250.5" y="50" transform="matrix(0.9582 -0.2862 0.2862 0.9582 -4.3623 75.1085)" class="st3" width="8.6" height="4.9"/>
				
					<rect x="261.5" y="44.9" transform="matrix(0.9582 -0.2862 0.2862 0.9582 -2.1758 79.8099)" class="st3" width="21" height="4.9"/>
				
					<rect x="295.9" y="36.2" transform="matrix(0.9582 -0.2862 0.2862 0.9582 1.5449 87.8107)" class="st3" width="10.6" height="4.9"/>
				
					<rect x="284.4" y="40.2" transform="matrix(0.9582 -0.2861 0.2861 0.9582 -0.1767 84.1074)" class="st3" width="6.5" height="4.9"/>
			</g>
		</g>
		<g>
			<polygon class="st0" points="336.4,26.8 213.9,24.7 211.5,206.7 334.1,208.9 			"/>
			<g id="Document">
				
					<rect x="211.7" y="27.1" transform="matrix(0.9999 1.521908e-02 -1.521908e-02 0.9999 1.8093 -4.1409)" class="st4" width="122.6" height="179.4"/>
				
					<rect x="222.2" y="35.9" transform="matrix(-0.9999 -1.522452e-02 1.522452e-02 -0.9999 447.3808 76.7803)" class="st3" width="3.6" height="1.7"/>
				
					<rect x="216.6" y="86.1" transform="matrix(0.9999 1.247563e-02 -1.247563e-02 0.9999 1.5273 -3.3987)" class="st5" width="113.2" height="69.3"/>
				
					<rect x="256.3" y="45.7" transform="matrix(0.9999 1.521599e-02 -1.521599e-02 0.9999 0.7623 -3.9448)" class="st3" width="6.6" height="4.8"/>
				
					<rect x="230.3" y="72.4" transform="matrix(0.9999 1.521599e-02 -1.521599e-02 0.9999 1.1654 -3.5459)" class="st3" width="6.6" height="4.8"/>
				
					<rect x="241.3" y="72.7" transform="matrix(0.9999 1.522155e-02 -1.522155e-02 0.9999 1.172 -3.8195)" class="st3" width="20.5" height="4.8"/>
				
					<rect x="266.3" y="73" transform="matrix(0.9999 1.522082e-02 -1.522082e-02 0.9999 1.1796 -4.1533)" class="st3" width="14.4" height="4.8"/>
				
					<rect x="287.9" y="73.4" transform="matrix(0.9999 1.521976e-02 -1.521976e-02 0.9999 1.1881 -4.5296)" class="st3" width="20.6" height="4.8"/>
				
					<rect x="317.6" y="56.4" transform="matrix(0.9999 1.522585e-02 -1.522585e-02 0.9999 0.9174 -4.9174)" class="st3" width="11.6" height="2.7"/>
				
					<rect x="311.6" y="73.7" transform="matrix(0.9999 1.521958e-02 -1.521958e-02 0.9999 1.1952 -4.8413)" class="st3" width="14.1" height="4.8"/>
				
					<rect x="321.3" y="38.1" transform="matrix(0.9999 1.523008e-02 -1.523008e-02 0.9999 0.6383 -4.9487)" class="st3" width="8" height="2.7"/>
				
					<rect x="222.3" y="82" transform="matrix(0.9999 1.522865e-02 -1.522865e-02 0.9999 1.3114 -3.4256)" class="st3" width="6.6" height="4.8"/>
				
					<rect x="222.1" y="88.1" transform="matrix(0.9999 1.521900e-02 -1.521900e-02 0.9999 1.4021 -3.5713)" class="st3" width="26.5" height="4.4"/>
				
					<rect x="250.6" y="88.5" transform="matrix(0.9999 1.521877e-02 -1.521877e-02 0.9999 1.4106 -3.9446)" class="st3" width="18.5" height="4.4"/>
				
					<rect x="222" y="96.2" transform="matrix(0.9999 1.521861e-02 -1.521861e-02 0.9999 1.526 -3.6278)" class="st3" width="34.3" height="4.4"/>
				
					<rect x="258.8" y="96.7" transform="matrix(0.9999 1.521895e-02 -1.521895e-02 0.9999 1.5374 -4.1291)" class="st3" width="26.5" height="4.4"/>
				
					<rect x="221.9" y="104.1" transform="matrix(0.9999 1.521955e-02 -1.521955e-02 0.9999 1.6446 -3.4521)" class="st3" width="11.5" height="4.4"/>
				
					<rect x="235.1" y="104.5" transform="matrix(0.9999 1.522064e-02 -1.522064e-02 0.9999 1.6537 -3.8464)" class="st3" width="36.8" height="4.4"/>
				
					<rect x="221.7" y="112.3" transform="matrix(0.9999 1.521895e-02 -1.521895e-02 0.9999 1.7697 -3.5629)" class="st3" width="26.5" height="4.4"/>
				
					<rect x="250.3" y="112.7" transform="matrix(0.9999 1.521791e-02 -1.521791e-02 0.9999 1.78 -4.0182)" class="st3" width="29.3" height="4.4"/>
				
					<rect x="221.6" y="120.3" transform="matrix(0.9999 1.521878e-02 -1.521878e-02 0.9999 1.8909 -3.5041)" class="st3" width="19.1" height="4.4"/>
				
					<rect x="253.3" y="120.8" transform="matrix(0.9999 1.521900e-02 -1.521900e-02 0.9999 1.9032 -4.042)" class="st3" width="26.5" height="4.4"/>
				
					<rect x="243" y="120.5" transform="matrix(0.9999 1.521979e-02 -1.521979e-02 0.9999 1.8964 -3.7386)" class="st3" width="7.1" height="4.4"/>
				
					<rect x="232.4" y="128.5" transform="matrix(0.9999 1.521877e-02 -1.521877e-02 0.9999 2.0171 -3.6632)" class="st3" width="18.5" height="4.4"/>
				
					<rect x="253.2" y="128.9" transform="matrix(0.9999 1.521895e-02 -1.521895e-02 0.9999 2.0258 -4.0391)" class="st3" width="26.5" height="4.4"/>
				
					<rect x="221.5" y="128.2" transform="matrix(0.9999 1.521980e-02 -1.521980e-02 0.9999 2.0115 -3.4102)" class="st3" width="7.1" height="4.4"/>
				
					<rect x="221.4" y="135.2" transform="matrix(0.9999 1.521849e-02 -1.521849e-02 0.9999 2.1179 -3.4669)" class="st3" width="14.9" height="4.4"/>
				
					<rect x="238.5" y="135.5" transform="matrix(0.9999 1.521735e-02 -1.521735e-02 0.9999 2.125 -3.7857)" class="st3" width="22.6" height="4.4"/>
				
					<rect x="249.8" y="144.9" transform="matrix(0.9999 1.521877e-02 -1.521877e-02 0.9999 2.2683 -3.925)" class="st3" width="18.5" height="4.4"/>
				
					<rect x="270.2" y="145.1" transform="matrix(0.9999 1.521980e-02 -1.521980e-02 0.9999 2.2736 -4.1503)" class="st3" width="7.1" height="4.4"/>
				
					<rect x="221.2" y="144.3" transform="matrix(0.9999 1.522680e-02 -1.522680e-02 0.9999 2.2574 -3.3958)" class="st3" width="5.8" height="4.4"/>
				
					<rect x="228.4" y="144.5" transform="matrix(0.9999 1.522239e-02 -1.522239e-02 0.9999 2.2598 -3.5292)" class="st3" width="9.2" height="4.4"/>
				
					<rect x="238.6" y="144.6" transform="matrix(0.9999 1.521338e-02 -1.521338e-02 0.9999 2.262 -3.6821)" class="st3" width="9.2" height="4.4"/>
				
					<rect x="301.5" y="89.1" transform="matrix(0.9999 1.247200e-02 -1.247200e-02 0.9999 1.1625 -3.8033)" class="st3" width="8.1" height="4.4"/>
				
					<rect x="301.4" y="97.1" transform="matrix(0.9999 1.247214e-02 -1.247214e-02 0.9999 1.2619 -3.8014)" class="st3" width="8.1" height="4.4"/>
				
					<rect x="301.3" y="105" transform="matrix(0.9999 1.247202e-02 -1.247202e-02 0.9999 1.3613 -3.7995)" class="st3" width="8.1" height="4.4"/>
				
					<rect x="301.2" y="113" transform="matrix(0.9999 1.247214e-02 -1.247214e-02 0.9999 1.4607 -3.7977)" class="st3" width="8.1" height="4.4"/>
				
					<rect x="301.1" y="121" transform="matrix(0.9999 1.248235e-02 -1.248235e-02 0.9999 1.5614 -3.799)" class="st3" width="8.1" height="4.4"/>
				
					<rect x="301" y="128.9" transform="matrix(0.9999 1.247214e-02 -1.247214e-02 0.9999 1.6595 -3.794)" class="st3" width="8.1" height="4.4"/>
				
					<rect x="300.9" y="136.9" transform="matrix(0.9999 1.248248e-02 -1.248248e-02 0.9999 1.7604 -3.7953)" class="st3" width="8.1" height="4.4"/>
				
					<rect x="300.8" y="144.9" transform="matrix(0.9999 1.247201e-02 -1.247201e-02 0.9999 1.8583 -3.7902)" class="st3" width="8.1" height="4.4"/>
				
					<rect x="233.2" y="82.3" transform="matrix(0.9999 1.521751e-02 -1.521751e-02 0.9999 1.3167 -3.6953)" class="st3" width="20.5" height="4.8"/>
				
					<rect x="258.2" y="82.5" transform="matrix(0.9999 1.521015e-02 -1.521015e-02 0.9999 1.3221 -3.9591)" class="st3" width="5.4" height="4.8"/>
				
					<rect x="268.4" y="82.7" transform="matrix(0.9999 1.522351e-02 -1.522351e-02 0.9999 1.3273 -4.1405)" class="st3" width="8.4" height="4.8"/>
				
					<rect x="315.2" y="59.8" transform="matrix(0.9999 1.521040e-02 -1.521040e-02 0.9999 0.9668 -4.8236)" class="st3" width="4.7" height="2.7"/>
				
					<rect x="279.9" y="83" transform="matrix(0.9999 1.521983e-02 -1.521983e-02 0.9999 1.3331 -4.4064)" class="st3" width="20.6" height="4.8"/>
				
					<rect x="314.8" y="83.4" transform="matrix(0.9999 1.522518e-02 -1.522518e-02 0.9999 1.3439 -4.8622)" class="st3" width="10.4" height="4.8"/>
				
					<rect x="311" y="56.3" transform="matrix(0.9999 1.522652e-02 -1.522652e-02 0.9999 0.9145 -4.7734)" class="st3" width="5.9" height="2.7"/>
				
					<rect x="303" y="83.2" transform="matrix(0.9999 1.521902e-02 -1.521902e-02 0.9999 1.3386 -4.6501)" class="st3" width="6.3" height="4.8"/>
				
					<rect x="252.7" y="61.5" transform="matrix(-0.9999 -1.522796e-02 1.522796e-02 -0.9999 506.7911 128.4839)" class="st3" width="2.3" height="1.7"/>
				
					<rect x="244.1" y="61.4" transform="matrix(-0.9999 -1.522815e-02 1.522815e-02 -0.9999 494.4074 128.2011)" class="st3" width="7.1" height="1.7"/>
				
					<rect x="237.6" y="61.3" transform="matrix(-0.9999 -1.522161e-02 1.522161e-02 -0.9999 479.2198 127.8527)" class="st3" width="5" height="1.7"/>
				
					<rect x="228" y="61.1" transform="matrix(-0.9999 -1.522409e-02 1.522409e-02 -0.9999 462.096 127.4623)" class="st3" width="7.1" height="1.7"/>
				
					<rect x="222" y="39.2" transform="matrix(-0.9999 -1.522622e-02 1.522622e-02 -0.9999 448.2496 83.5224)" class="st3" width="4.9" height="1.7"/>
				
					<rect x="255.5" y="58.2" transform="matrix(-0.9999 -1.522796e-02 1.522796e-02 -0.9999 512.3954 121.8901)" class="st3" width="2.3" height="1.7"/>
				
					<rect x="246.9" y="58.1" transform="matrix(-0.9999 -1.521632e-02 1.521632e-02 -0.9999 500.0125 121.6044)" class="st3" width="7.1" height="1.7"/>
				
					<rect x="243.5" y="58" transform="matrix(-0.9999 -1.520361e-02 1.520361e-02 -0.9999 487.9301 121.3254)" class="st3" width="1.9" height="1.7"/>
				
					<rect x="238.9" y="57.9" transform="matrix(-0.9999 -1.519188e-02 1.519188e-02 -0.9999 479.8386 121.1378)" class="st3" width="2.9" height="1.7"/>
				
					<rect x="230.8" y="57.8" transform="matrix(-0.9999 -1.521230e-02 1.521230e-02 -0.9999 467.701 120.8656)" class="st3" width="7.1" height="1.7"/>
				
					<rect x="227.7" y="57.7" transform="matrix(-0.9999 -1.522957e-02 1.522957e-02 -0.9999 456.6026 120.6162)" class="st3" width="2.2" height="1.7"/>
				
					<rect x="222.5" y="45.9" transform="matrix(0.9999 1.247514e-02 -1.247514e-02 0.9999 0.6481 -3.438)" class="st3" width="106.8" height="8.7"/>
				
					<rect x="260.3" y="47.8" transform="matrix(0.9999 1.521964e-02 -1.521964e-02 0.9999 0.7958 -4.1607)" class="st6" width="26.9" height="4.8"/>
				
					<rect x="264.3" y="163.5" transform="matrix(0.9999 1.247433e-02 -1.247433e-02 0.9999 2.1071 -3.4607)" class="st3" width="28.4" height="7.3"/>
				
					<rect x="298.1" y="163.8" transform="matrix(0.9999 1.247049e-02 -1.247049e-02 0.9999 2.1126 -3.7849)" class="st3" width="12.9" height="7.3"/>
			</g>
		</g>
		<g>
			<path class="st0" d="M120.6,165.9l-12.2-18.8c-0.7-1-2.1-1.3-3.1-0.7l-32.6,21.1c-1,0.7-1.3,2.1-0.7,3.1l12.2,18.8
				c0.7,1,2.1,1.3,3.1,0.7L120,169C121,168.3,121.3,166.9,120.6,165.9z"/>
			<g>
				<path class="st7" d="M120.6,164.9c0.7,1,0.4,2.4-0.7,3.1l-32.6,21.1c-1,0.7-2.4,0.4-3.1-0.7l-12.2-18.8c-0.7-1-0.4-2.4,0.7-3.1
					l32.6-21.1c1-0.7,2.4-0.4,3.1,0.7L120.6,164.9z"/>
				<circle class="st8" cx="115.8" cy="166.3" r="2.1"/>
				<circle class="st9" cx="113.1" cy="168.1" r="2.1"/>
				
					<rect x="84.1" y="181.6" transform="matrix(0.8395 -0.5433 0.5433 0.8395 -84.8171 77.3528)" class="st10" width="8.8" height="1.3"/>
				
					<rect x="85.1" y="182.5" transform="matrix(0.8395 -0.5433 0.5433 0.8395 -84.8304 79.0737)" class="st10" width="12.8" height="1.3"/>
				
					<rect x="97" y="177.9" transform="matrix(0.8395 -0.5433 0.5433 0.8395 -81.1939 82.1986)" class="st10" width="3.2" height="1.3"/>
				
					<rect x="92.3" y="177.3" transform="matrix(0.8395 -0.5433 0.5433 0.8395 -81.4118 80.2754)" class="st10" width="5.8" height="1.3"/>
				
					<rect x="81" y="177.2" transform="matrix(0.8395 -0.5433 0.5433 0.8395 -83.2786 74.8776)" class="st10" width="8.2" height="2.4"/>
				
					<rect x="89.1" y="172" transform="matrix(0.8395 -0.5433 0.5433 0.8395 -79.1453 78.4256)" class="st10" width="8.2" height="2.4"/>
				
					<rect x="97.2" y="166.8" transform="matrix(0.8395 -0.5433 0.5433 0.8395 -75.0115 81.9725)" class="st10" width="8.2" height="2.4"/>
				
					<rect x="105.3" y="161.5" transform="matrix(0.8395 -0.5433 0.5433 0.8395 -70.8786 85.5216)" class="st10" width="8.2" height="2.4"/>
				<path class="st11" d="M109.7,156.8c0.6,1,0.4,2.3-0.6,2.9l-4.3,2.8c-1,0.6-2.3,0.4-2.9-0.6l0,0c-0.6-1-0.4-2.3,0.6-2.9l4.3-2.8
					C107.8,155.6,109.1,155.8,109.7,156.8L109.7,156.8z"/>
				<path class="st8" d="M83.8,171.3c0.2,0.2,0.1,0.5-0.1,0.7l-3.9,2.5c-0.2,0.2-0.5,0.1-0.7-0.1l-1.8-2.8c-0.2-0.2-0.1-0.5,0.1-0.7
					l3.9-2.5c0.2-0.2,0.5-0.1,0.7,0.1L83.8,171.3z"/>
				
					<rect x="96" y="149.8" transform="matrix(0.8395 -0.5433 0.5433 0.8395 -66.083 79.9333)" class="st10" width="12.5" height="4"/>
				
					<rect x="101" y="152.8" transform="matrix(0.8395 -0.5433 0.5433 0.8395 -66.257 81.8049)" class="st10" width="8.6" height="0.6"/>
				<g>
					<polygon class="st12" points="83.3,172.2 83.1,172.3 81.9,170.5 79.7,172 78.5,170.1 78.7,170 79.8,171.6 82,170.2 					"/>
				</g>
				<g>
					
						<rect x="81" y="171.1" transform="matrix(0.8395 -0.5434 0.5434 0.8395 -80.5755 71.7336)" class="st12" width="0.3" height="2.2"/>
				</g>
			</g>
		</g>
		<g>
			<path class="st0" d="M179.1,173.9l-0.9-3l-2.6,0.8l2.8-0.9l-0.9-2.9l-0.2,0.1l-22.3-71.2l-6.9-13l0.5,4.4l0,0l1.2,10.2l22.3,71.2
				l0.7-0.2l-0.9,0.3l0.9,2.9l0.2-0.1l0.9,3c0.2,0.8,1.1,1.2,1.9,1l2.3-0.7C178.9,175.5,179.3,174.7,179.1,173.9z"/>
			<g>
				<g>
					
						<rect x="159" y="96.5" transform="matrix(0.9647 -0.2632 0.2632 0.9647 -29.514 47.2641)" class="st13" width="5.4" height="74.7"/>
					
						<rect x="169" y="169.7" transform="matrix(0.9647 -0.2632 0.2632 0.9647 -39.015 51.2723)" class="st14" width="5.8" height="3"/>
					<path class="st15" d="M175.7,175c0.2,0.8-0.3,1.6-1,1.8l-2.3,0.6c-0.8,0.2-1.6-0.3-1.8-1l-0.8-3l5.2-1.4L175.7,175z"/>
					<polygon class="st16" points="148,83.8 149.2,98.5 151.8,97.8 154.4,97.1 					"/>
					<path class="st17" d="M149.2,88.2c0.3-0.1,0.5-0.2,0.7-0.4l-1.9-4l0.4,4.5C148.7,88.3,148.9,88.2,149.2,88.2z"/>
					
						<rect x="160.8" y="96.4" transform="matrix(0.9648 -0.2632 0.2632 0.9648 -29.5035 47.2759)" class="st18" width="1.8" height="74.7"/>
				</g>
				<g>
					<path class="st19" d="M164.2,140l-1.4,0.4l-0.2-0.6c0-0.1,0-0.2-0.1-0.3c0-0.1,0-0.1,0-0.2c0-0.1,0.1-0.1,0.1-0.1
						c0.1,0,0.1-0.1,0.2-0.1c0.1,0,0.2,0,0.2,0c0.1,0,0.1,0,0.2,0.1c0,0,0.1,0.1,0.1,0.2c0,0.1,0.1,0.2,0.1,0.3l0.1,0.4l0.5-0.1
						L164.2,140z M163,139.3c-0.1,0-0.1,0-0.2,0.1c0,0-0.1,0.1-0.1,0.1c0,0,0,0.1,0,0.1c0,0,0,0.1,0,0.2l0.1,0.4l0.7-0.2l-0.1-0.4
						c0-0.1,0-0.1-0.1-0.2c0,0,0-0.1-0.1-0.1c0,0-0.1,0-0.1,0C163.1,139.3,163.1,139.3,163,139.3L163,139.3z"/>
					<path class="st19" d="M163.4,137.4c0,0,0,0.1,0.1,0.1c0,0,0.1,0.1,0.1,0.1c0,0,0,0.1,0.1,0.2c0,0.1,0,0.1,0.1,0.2
						c0,0.1,0,0.2,0.1,0.3c0,0.1,0,0.2,0,0.2c0,0.1-0.1,0.1-0.2,0.2c-0.1,0.1-0.2,0.1-0.4,0.1c-0.2,0-0.3,0.1-0.4,0.1
						c-0.1,0-0.2,0-0.3-0.1c-0.1,0-0.1-0.1-0.2-0.2c0-0.1-0.1-0.2-0.1-0.3c0-0.1,0-0.2,0-0.3c0-0.1,0-0.2,0.1-0.2
						c0-0.1,0.1-0.1,0.2-0.2c0.1-0.1,0.2-0.1,0.3-0.1l0.1,0l0.3,1.2c0.1,0,0.2-0.1,0.3-0.1c0.1,0,0.1-0.1,0.1-0.1c0-0.1,0-0.1,0-0.2
						c0-0.1,0-0.2,0-0.3c0,0,0-0.1,0-0.1c0,0,0-0.1-0.1-0.1c0,0,0-0.1-0.1-0.1c0,0,0-0.1-0.1-0.1L163.4,137.4z M162.7,137.7
						c-0.1,0-0.2,0.1-0.3,0.1s-0.1,0.1-0.1,0.1c0,0.1,0,0.1,0,0.2c0,0.1,0,0.1,0,0.2c0,0.1,0,0.1,0.1,0.2c0,0.1,0.1,0.1,0.1,0.1
						c0,0,0.1,0.1,0.2,0.1c0.1,0,0.2,0,0.3,0L162.7,137.7z"/>
					<path class="st19" d="M163.1,136.1l-1,1.2l1.2-0.3l0,0.2l-1.4,0.4l0-0.2l1-1.2l-1.2,0.3l0-0.1l1.4-0.4L163.1,136.1z"/>
					<path class="st19" d="M162.6,134.4c0,0.1,0.1,0.1,0.1,0.2c0,0.1,0.1,0.2,0.1,0.3c0,0.1,0,0.2,0.1,0.3c0,0.1,0,0.2,0,0.3
						c0,0.1-0.1,0.1-0.2,0.2c-0.1,0.1-0.2,0.1-0.4,0.2c-0.2,0-0.3,0.1-0.4,0.1c-0.1,0-0.2,0-0.3-0.1c-0.1,0-0.1-0.1-0.2-0.2
						c0-0.1-0.1-0.2-0.1-0.3c-0.1-0.2-0.1-0.4,0-0.5l0.1,0c0,0,0,0.1,0,0.2c0,0.1,0,0.2,0,0.3c0,0.1,0,0.2,0.1,0.2
						c0,0.1,0.1,0.1,0.1,0.2c0.1,0,0.1,0.1,0.2,0.1c0.1,0,0.2,0,0.3,0c0.1,0,0.3-0.1,0.3-0.1c0.1-0.1,0.1-0.1,0.2-0.2
						c0-0.1,0-0.1,0-0.2c0-0.1,0-0.1,0-0.2c0,0,0-0.1,0-0.1c0,0,0-0.1-0.1-0.1s0-0.1-0.1-0.1c0,0,0-0.1,0-0.1L162.6,134.4z"/>
					<path class="st19" d="M162.6,134.1l-1.4,0.4l0-0.2l1.4-0.4L162.6,134.1z"/>
					<path class="st19" d="M162.5,133.6l-1.4,0.4l0-0.2l1.3-0.4l-0.2-0.8l0.1,0L162.5,133.6z"/>
					<path class="st19" d="M161.8,131.3l-0.4,0.1c-0.1,0-0.1,0-0.2,0c0,0-0.1,0-0.1,0c0,0-0.1,0-0.1-0.1c0,0-0.1-0.1-0.1-0.1
						c0,0,0-0.1-0.1-0.1c0,0,0-0.1-0.1-0.1c0,0-0.1-0.1-0.1-0.1c0,0,0-0.1-0.1-0.1c0,0,0,0-0.1,0c0,0-0.1,0-0.1,0
						c-0.1,0-0.2,0.1-0.2,0.1c0,0.1,0,0.2,0,0.3c0,0,0,0.1,0,0.1c0,0,0,0.1,0.1,0.1c0,0,0,0.1,0.1,0.1c0,0,0,0.1,0,0.1l-0.1,0.1
						c0,0,0,0-0.1-0.1c0,0,0-0.1-0.1-0.1c0,0,0-0.1-0.1-0.1c0,0,0-0.1,0-0.1c0-0.1,0-0.1,0-0.2c0-0.1,0-0.1,0-0.2
						c0-0.1,0-0.1,0.1-0.1c0,0,0.1-0.1,0.2-0.1c0.1,0,0.1,0,0.2,0c0.1,0,0.1,0,0.1,0.1c0,0,0.1,0.1,0.1,0.2c0,0.1,0.1,0.1,0.1,0.2
						c0,0,0,0.1,0.1,0.1c0,0,0,0.1,0.1,0.1c0,0,0,0,0.1,0c0,0,0.1,0,0.1,0l0.2-0.1l-0.2-0.8l0.1,0L161.8,131.3z"/>
					<path class="st19" d="M161.5,130.1l-1.4,0.4l-0.2-0.6c0-0.1,0-0.2-0.1-0.3s0-0.1,0-0.2c0,0,0-0.1,0.1-0.1c0,0,0.1-0.1,0.2-0.1
						c0.1,0,0.1,0,0.1,0c0,0,0.1,0,0.1,0c0,0,0.1,0,0.1,0c0,0,0,0,0.1,0.1c0,0,0-0.1,0-0.1c0,0,0-0.1,0-0.1c0,0,0,0,0.1-0.1
						c0,0,0.1,0,0.1-0.1c0.1,0,0.1,0,0.2,0c0.1,0,0.1,0,0.1,0.1c0,0,0.1,0.1,0.1,0.2c0,0.1,0.1,0.2,0.1,0.3L161.5,130.1z
						 M160.5,129.6c0-0.1,0-0.1-0.1-0.2c0,0,0-0.1-0.1-0.1c0,0-0.1,0-0.1,0c0,0-0.1,0-0.2,0c-0.1,0-0.1,0-0.1,0.1c0,0,0,0.1-0.1,0.1
						c0,0,0,0.1,0,0.1c0,0.1,0,0.1,0,0.2l0.1,0.5l0.5-0.1L160.5,129.6z M161.2,129.5c0-0.1,0-0.1-0.1-0.2c0,0,0-0.1-0.1-0.1
						c0,0-0.1,0-0.1,0c0,0-0.1,0-0.1,0c-0.1,0-0.1,0-0.2,0.1c0,0-0.1,0.1-0.1,0.1c0,0,0,0.1,0,0.1c0,0,0,0.1,0,0.2l0.1,0.5l0.5-0.1
						L161.2,129.5z"/>
				</g>
			</g>
		</g>
		<g>
			<path class="st0" d="M484.8,154.5L458.5,75c-0.3-0.9-1.2-1.3-2.1-1l-57.5,19c-0.9,0.3-1.3,1.2-1,2.1l23.2,77.5
				c1.9,3,4.3,3.1,4.3,3.1l0,0c0.3,0.1,0.6,0.1,0.8,0l3.5-1.2l0,0l0,0l54-17.9C484.6,156.3,485.1,155.4,484.8,154.5z"/>
			<g>
				<path class="st20" d="M480.9,153.9c0.3,0.9-0.2,1.8-1,2.1l-57.5,19c-0.9,0.3-1.8-0.2-2.1-1L394,94.4c-0.3-0.9,0.2-1.8,1-2.1
					l57.5-19c0.9-0.3,1.8,0.2,2.1,1L480.9,153.9z"/>
				<path class="st21" d="M422.1,174.2c-0.4,0.1-0.9-0.1-1-0.5l-26.3-79.5c-0.1-0.4,0.1-0.9,0.5-1l57.5-19c0.4-0.1,0.9,0.1,1,0.5
					l26.3,79.5c0.1,0.4-0.1,0.9-0.5,1L422.1,174.2z"/>
				<path class="st7" d="M452.8,74.1l-57.5,19c-0.4,0.1-0.7,0.6-0.5,1l6.9,20.8l59.1-19.5l-6.9-20.8C453.7,74.2,453.2,74,452.8,74.1
					z"/>
				
					<rect x="403.2" y="91.4" transform="matrix(0.9495 -0.3139 0.3139 0.9495 -8.6979 139.3337)" class="st22" width="50.4" height="10.6"/>
				<g>
					
						<rect x="401.1" y="88.3" transform="matrix(0.9495 -0.3139 0.3139 0.9495 -7.6 134.6017)" class="st23" width="26.3" height="5.2"/>
					
						<rect x="405.2" y="91.3" transform="matrix(0.9495 -0.3138 0.3138 0.9495 -8.9754 131.9505)" class="st24" width="0.3" height="5.2"/>
					
						<rect x="408.8" y="90.1" transform="matrix(0.9495 -0.3138 0.3138 0.9495 -8.4152 133.0295)" class="st24" width="0.3" height="5.2"/>
					
						<rect x="412.4" y="88.9" transform="matrix(0.9495 -0.3138 0.3138 0.9495 -7.855 134.1086)" class="st24" width="0.3" height="5.2"/>
					
						<rect x="416.1" y="87.7" transform="matrix(0.9495 -0.3139 0.3139 0.9495 -7.2944 135.1915)" class="st24" width="0.3" height="5.2"/>
					
						<rect x="419.7" y="86.5" transform="matrix(0.9495 -0.3138 0.3138 0.9495 -6.7346 136.2666)" class="st24" width="0.3" height="5.2"/>
					
						<rect x="423.3" y="85.3" transform="matrix(0.9495 -0.3138 0.3138 0.9495 -6.1791 137.3046)" class="st24" width="0.3" height="5.2"/>
				</g>
				<g>
					<path class="st25" d="M441,82.2c-0.1,0.1-0.1,0.1-0.2,0.2c-0.1,0.1-0.2,0.1-0.3,0.1c-0.1,0-0.2,0.1-0.3,0.1c-0.1,0-0.2,0-0.3,0
						c-0.1,0-0.2-0.1-0.2-0.2c-0.1-0.1-0.1-0.2-0.2-0.4s-0.1-0.3-0.1-0.4c0-0.1,0-0.2,0.1-0.3c0-0.1,0.1-0.1,0.2-0.2
						c0.1-0.1,0.2-0.1,0.3-0.1c0.2-0.1,0.4-0.1,0.6-0.1l0,0.2c-0.1,0-0.1,0-0.2,0c-0.1,0-0.2,0-0.3,0.1c-0.1,0-0.2,0.1-0.2,0.1
						c-0.1,0-0.1,0.1-0.2,0.1c0,0.1-0.1,0.1-0.1,0.2c0,0.1,0,0.2,0.1,0.4c0.1,0.2,0.1,0.3,0.2,0.3c0.1,0.1,0.1,0.1,0.2,0.2
						c0.1,0,0.1,0,0.2,0c0.1,0,0.2,0,0.2-0.1c0,0,0.1,0,0.1-0.1c0,0,0.1,0,0.1-0.1c0,0,0.1,0,0.1-0.1c0,0,0.1,0,0.1-0.1L441,82.2z"
						/>
					<path class="st25" d="M442.7,81.7c-0.1,0-0.1,0-0.2,0c0,0-0.1-0.1-0.1-0.1c0,0.1-0.1,0.2-0.2,0.3c-0.1,0.1-0.2,0.1-0.3,0.2
						c-0.1,0-0.2,0.1-0.3,0.1c-0.1,0-0.2,0-0.2,0c-0.1,0-0.1-0.1-0.2-0.1c-0.1-0.1-0.1-0.1-0.1-0.2c0-0.1,0-0.2,0-0.2
						c0-0.1,0-0.1,0.1-0.2c0-0.1,0.1-0.1,0.2-0.1c0.1,0,0.2-0.1,0.2-0.1l0.5-0.2c0-0.1-0.1-0.2-0.1-0.3c0-0.1-0.1-0.1-0.1-0.1
						c0,0-0.1,0-0.2,0c-0.1,0-0.1,0-0.2,0.1c0,0-0.1,0-0.1,0.1c0,0-0.1,0-0.1,0.1c0,0-0.1,0-0.1,0.1c0,0-0.1,0-0.1,0.1l-0.1-0.1
						c0.1-0.1,0.1-0.1,0.2-0.2c0.1,0,0.2-0.1,0.3-0.1c0.1,0,0.2-0.1,0.3-0.1c0.1,0,0.2,0,0.2,0c0.1,0,0.1,0.1,0.2,0.2
						c0.1,0.1,0.1,0.2,0.2,0.4l0,0l0.1,0.3c0,0.1,0,0.1,0.1,0.1c0,0,0,0.1,0.1,0.1c0,0,0,0,0.1,0c0,0,0,0,0.1,0L442.7,81.7z
						 M442.1,81.1l-0.5,0.2c-0.1,0-0.1,0-0.2,0.1c-0.1,0-0.1,0.1-0.1,0.1c0,0-0.1,0.1-0.1,0.1c0,0.1,0,0.1,0,0.2
						c0,0.1,0.1,0.1,0.1,0.2c0,0,0.1,0.1,0.1,0.1c0,0,0.1,0,0.2,0c0.1,0,0.1,0,0.2,0c0.1,0,0.2-0.1,0.3-0.1c0.1-0.1,0.1-0.1,0.1-0.2
						c0-0.1,0-0.1,0-0.2C442.2,81.3,442.2,81.2,442.1,81.1L442.1,81.1z"/>
					<path class="st25" d="M443,81.6l-0.5-1.5l0.2-0.1l0.5,1.4l0.9-0.3l0,0.1L443,81.6z"/>
					<path class="st25" d="M445.5,80.7c-0.1,0.1-0.1,0.1-0.2,0.2c-0.1,0.1-0.2,0.1-0.3,0.1c-0.1,0-0.2,0.1-0.3,0.1
						c-0.1,0-0.2,0-0.3,0c-0.1,0-0.2-0.1-0.2-0.2c-0.1-0.1-0.1-0.2-0.2-0.4c-0.1-0.2-0.1-0.3-0.1-0.4c0-0.1,0-0.2,0.1-0.3
						c0-0.1,0.1-0.1,0.2-0.2c0.1-0.1,0.2-0.1,0.3-0.1c0.2-0.1,0.4-0.1,0.6-0.1l0,0.2c-0.1,0-0.1,0-0.2,0c-0.1,0-0.2,0-0.3,0.1
						c-0.1,0-0.2,0.1-0.2,0.1c-0.1,0-0.1,0.1-0.2,0.1c0,0.1-0.1,0.1-0.1,0.2c0,0.1,0,0.2,0.1,0.4c0.1,0.2,0.1,0.3,0.2,0.3
						c0.1,0.1,0.1,0.1,0.2,0.2c0.1,0,0.1,0,0.2,0c0.1,0,0.2,0,0.2-0.1c0,0,0.1,0,0.1-0.1c0,0,0.1,0,0.1-0.1c0,0,0.1,0,0.1-0.1
						c0,0,0.1,0,0.1-0.1L445.5,80.7z"/>
					<path class="st25" d="M447.2,79.5l0.1,0.4l-0.1,0l-0.1-0.4l-0.4,0.1l0-0.1l0.4-0.1l-0.1-0.4l0.1,0l0.1,0.4l0.5-0.1l0,0.1
						L447.2,79.5z"/>
				</g>
				<g>
					<path class="st26" d="M421.4,124.6c0.3,1-0.2,2.1-1.2,2.4l-5.1,1.7c-1,0.3-2.1-0.2-2.4-1.2l-1.7-5.1c-0.3-1,0.2-2.1,1.2-2.4
						l5.1-1.7c1-0.3,2.1,0.2,2.4,1.2L421.4,124.6z"/>
					<path class="st27" d="M430.9,121.5c0.3,1-0.2,2.1-1.2,2.4l-5.1,1.7c-1,0.3-2.1-0.2-2.4-1.2l-1.7-5.1c-0.3-1,0.2-2.1,1.2-2.4
						l5.1-1.7c1-0.3,2.1,0.2,2.4,1.2L430.9,121.5z"/>
					<path class="st28" d="M440.4,118.4c0.3,1-0.2,2.1-1.2,2.4l-5.1,1.7c-1,0.3-2.1-0.2-2.4-1.2l-1.7-5.1c-0.3-1,0.2-2.1,1.2-2.4
						l5.1-1.7c1-0.3,2.1,0.2,2.4,1.2L440.4,118.4z"/>
					<path class="st28" d="M449.9,115.2c0.3,1-0.2,2.1-1.2,2.4l-5.1,1.7c-1,0.3-2.1-0.2-2.4-1.2l-1.7-5.1c-0.3-1,0.2-2.1,1.2-2.4
						l5.1-1.7c1-0.3,2.1,0.2,2.4,1.2L449.9,115.2z"/>
					<path class="st28" d="M459.4,112.1c0.3,1-0.2,2.1-1.2,2.4l-5.1,1.7c-1,0.3-2.1-0.2-2.4-1.2l-1.7-5.1c-0.3-1,0.2-2.1,1.2-2.4
						l5.1-1.7c1-0.3,2.1,0.2,2.4,1.2L459.4,112.1z"/>
					<g>
						<path class="st28" d="M424.6,134.5c0.3,1-0.2,2.1-1.2,2.4l-5.1,1.7c-1,0.3-2.1-0.2-2.4-1.2l-1.7-5.1c-0.3-1,0.2-2.1,1.2-2.4
							l5.1-1.7c1-0.3,2.1,0.2,2.4,1.2L424.6,134.5z"/>
						<path class="st28" d="M434.1,131.3c0.3,1-0.2,2.1-1.2,2.4l-5.1,1.7c-1,0.3-2.1-0.2-2.4-1.2l-1.7-5.1c-0.3-1,0.2-2.1,1.2-2.4
							l5.1-1.7c1-0.3,2.1,0.2,2.4,1.2L434.1,131.3z"/>
						<path class="st28" d="M443.7,128.2c0.3,1-0.2,2.1-1.2,2.4l-5.1,1.7c-1,0.3-2.1-0.2-2.4-1.2l-1.7-5.1c-0.3-1,0.2-2.1,1.2-2.4
							l5.1-1.7c1-0.3,2.1,0.2,2.4,1.2L443.7,128.2z"/>
						<path class="st28" d="M453.2,125c0.3,1-0.2,2.1-1.2,2.4l-5.1,1.7c-1,0.3-2.1-0.2-2.4-1.2l-1.7-5.1c-0.3-1,0.2-2.1,1.2-2.4
							l5.1-1.7c1-0.3,2.1,0.2,2.4,1.2L453.2,125z"/>
						<path class="st28" d="M462.7,121.9c0.3,1-0.2,2.1-1.2,2.4l-5.1,1.7c-1,0.3-2.1-0.2-2.4-1.2l-1.7-5.1c-0.3-1,0.2-2.1,1.2-2.4
							l5.1-1.7c1-0.3,2.1,0.2,2.4,1.2L462.7,121.9z"/>
					</g>
					<g>
						<path class="st28" d="M427.9,144.3c0.3,1-0.2,2.1-1.2,2.4l-5.1,1.7c-1,0.3-2.1-0.2-2.4-1.2l-1.7-5.1c-0.3-1,0.2-2.1,1.2-2.4
							l5.1-1.7c1-0.3,2.1,0.2,2.4,1.2L427.9,144.3z"/>
						<path class="st28" d="M437.4,141.2c0.3,1-0.2,2.1-1.2,2.4l-5.1,1.7c-1,0.3-2.1-0.2-2.4-1.2l-1.7-5.1c-0.3-1,0.2-2.1,1.2-2.4
							l5.1-1.7c1-0.3,2.1,0.2,2.4,1.2L437.4,141.2z"/>
						<path class="st28" d="M446.9,138c0.3,1-0.2,2.1-1.2,2.4l-5.1,1.7c-1,0.3-2.1-0.2-2.4-1.2l-1.7-5.1c-0.3-1,0.2-2.1,1.2-2.4
							l5.1-1.7c1-0.3,2.1,0.2,2.4,1.2L446.9,138z"/>
						<path class="st28" d="M456.4,134.9c0.3,1-0.2,2.1-1.2,2.4l-5.1,1.7c-1,0.3-2.1-0.2-2.4-1.2l-1.7-5.1c-0.3-1,0.2-2.1,1.2-2.4
							l5.1-1.7c1-0.3,2.1,0.2,2.4,1.2L456.4,134.9z"/>
						<path class="st28" d="M465.9,131.7c0.3,1-0.2,2.1-1.2,2.4l-5.1,1.7c-1,0.3-2.1-0.2-2.4-1.2l-1.7-5.1c-0.3-1,0.2-2.1,1.2-2.4
							l5.1-1.7c1-0.3,2.1,0.2,2.4,1.2L465.9,131.7z"/>
					</g>
					<path class="st28" d="M434.4,164c0.3,1-0.2,2.1-1.2,2.4l-5.1,1.7c-1,0.3-2.1-0.2-2.4-1.2l-1.7-5.1c-0.3-1,0.2-2.1,1.2-2.4
						l5.1-1.7c1-0.3,2.1,0.2,2.4,1.2L434.4,164z"/>
					<path class="st28" d="M443.9,160.8c0.3,1-0.2,2.1-1.2,2.4l-5.1,1.7c-1,0.3-2.1-0.2-2.4-1.2l-1.7-5.1c-0.3-1,0.2-2.1,1.2-2.4
						l5.1-1.7c1-0.3,2.1,0.2,2.4,1.2L443.9,160.8z"/>
					<path class="st28" d="M453.4,157.7c0.3,1-0.2,2.1-1.2,2.4l-5.1,1.7c-1,0.3-2.1-0.2-2.4-1.2l-1.7-5.1c-0.3-1,0.2-2.1,1.2-2.4
						l5.1-1.7c1-0.3,2.1,0.2,2.4,1.2L453.4,157.7z"/>
					<path class="st28" d="M462.9,154.5c0.3,1-0.2,2.1-1.2,2.4l-5.1,1.7c-1,0.3-2.1-0.2-2.4-1.2l-1.7-5.1c-0.3-1,0.2-2.1,1.2-2.4
						l5.1-1.7c1-0.3,2.1,0.2,2.4,1.2L462.9,154.5z"/>
					<g>
						<path class="st28" d="M427,147.8l-5.1,1.7c-1,0.3-1.5,1.4-1.2,2.4l1.7,5.1c0.3,1,1.4,1.5,2.4,1.2l5.1-1.7
							c1-0.3,1.5-1.4,1.2-2.4l-1.7-5.1C429.1,148,428,147.4,427,147.8z"/>
						<path class="st28" d="M436.5,144.6l-5.1,1.7c-1,0.3-1.5,1.4-1.2,2.4l1.7,5.1c0.3,1,1.4,1.5,2.4,1.2l5.1-1.7
							c1-0.3,1.5-1.4,1.2-2.4l-1.7-5.1C438.6,144.8,437.5,144.3,436.5,144.6z"/>
						<path class="st28" d="M446,141.5l-5.1,1.7c-1,0.3-1.5,1.4-1.2,2.4l1.7,5.1c0.3,1,1.4,1.5,2.4,1.2l5.1-1.7
							c1-0.3,1.5-1.4,1.2-2.4l-1.7-5.1C448.1,141.7,447,141.2,446,141.5z"/>
						<path class="st28" d="M455.6,138.3l-5.1,1.7c-1,0.3-1.5,1.4-1.2,2.4l1.7,5.1c0.3,1,1.4,1.5,2.4,1.2l5.1-1.7
							c1-0.3,1.5-1.4,1.2-2.4l-1.7-5.1C457.6,138.6,456.6,138,455.6,138.3z"/>
						<path class="st28" d="M465.1,135.2l-5.1,1.7c-1,0.3-1.5,1.4-1.2,2.4l0.8,2.6l0.8,2.6l1.5,4.7l0.8,2.6l0.8,2.6
							c0.3,1,1.4,1.5,2.4,1.2l5.1-1.7c1-0.3,1.5-1.4,1.2-2.4l-0.8-2.6l-0.8-2.6l-1.5-4.7l-1.1-3.2l-0.6-1.9
							C467.1,135.4,466.1,134.9,465.1,135.2z"/>
					</g>
				</g>
			</g>
			<g>
				<path class="st29" d="M437.7,101.8l-0.3-0.4l-0.7,0.2l0,0.5l-0.2,0.1l0.1-1.7l0.2-0.1l1.1,1.3L437.7,101.8z M436.9,100.8
					l-0.2-0.3l0,0l0,0.3l0,0.6l0.6-0.2L436.9,100.8z"/>
				<path class="st29" d="M439.5,101.2c0,0-0.1,0-0.1,0c0,0-0.1,0-0.1,0c0,0-0.1,0-0.1,0c0,0-0.1-0.1-0.2-0.1l-0.3-0.2l0,0l-0.4,0.1
					l0.2,0.5l-0.2,0.1l-0.5-1.5l0.6-0.2c0.1,0,0.2-0.1,0.3-0.1c0.1,0,0.1,0,0.2,0c0.1,0,0.1,0.1,0.1,0.1c0,0.1,0.1,0.1,0.1,0.2
					c0,0.1,0,0.2,0.1,0.2c0,0.1,0,0.1,0,0.2c0,0,0,0.1-0.1,0.1c0,0-0.1,0.1-0.2,0.1l0.3,0.2c0.1,0,0.1,0.1,0.1,0.1c0,0,0.1,0,0.1,0
					c0,0,0.1,0,0.1,0c0,0,0,0,0.1,0L439.5,101.2z M438.6,100.8c0.1,0,0.1,0,0.2-0.1s0.1-0.1,0.1-0.1c0,0,0-0.1,0-0.1
					c0-0.1,0-0.1,0-0.2c0-0.1-0.1-0.2-0.1-0.2c0,0-0.1-0.1-0.1-0.1c0,0-0.1,0-0.1,0c-0.1,0-0.1,0-0.2,0.1l-0.5,0.1l0.2,0.7
					L438.6,100.8z"/>
				<path class="st29" d="M441,100.6c-0.1,0.1-0.1,0.1-0.2,0.2c-0.1,0.1-0.2,0.1-0.3,0.1c-0.1,0-0.2,0.1-0.3,0.1c-0.1,0-0.2,0-0.3,0
					c-0.1,0-0.2-0.1-0.2-0.2c-0.1-0.1-0.1-0.2-0.2-0.4c-0.1-0.2-0.1-0.3-0.1-0.4c0-0.1,0-0.2,0.1-0.3c0-0.1,0.1-0.1,0.2-0.2
					c0.1-0.1,0.2-0.1,0.3-0.1c0.2-0.1,0.4-0.1,0.6-0.1l0,0.2c-0.1,0-0.1,0-0.2,0c-0.1,0-0.2,0-0.3,0.1c-0.1,0-0.2,0.1-0.2,0.1
					c-0.1,0-0.1,0.1-0.2,0.1c0,0.1-0.1,0.1-0.1,0.2c0,0.1,0,0.2,0.1,0.4c0,0.2,0.1,0.3,0.2,0.3c0.1,0.1,0.1,0.1,0.2,0.2
					c0.1,0,0.1,0,0.2,0c0.1,0,0.2,0,0.2-0.1c0,0,0.1,0,0.1-0.1c0,0,0.1,0,0.1-0.1c0,0,0.1,0,0.1-0.1c0,0,0.1,0,0.1-0.1L441,100.6z"
					/>
				<path class="st29" d="M443.7,99.7c-0.1,0.1-0.1,0.1-0.2,0.2c-0.1,0.1-0.2,0.1-0.3,0.1c-0.1,0-0.2,0.1-0.3,0.1
					c-0.1,0-0.2,0-0.3,0c-0.1,0-0.2-0.1-0.2-0.2c-0.1-0.1-0.1-0.2-0.2-0.4s-0.1-0.3-0.1-0.4c0-0.1,0-0.2,0.1-0.3
					c0-0.1,0.1-0.1,0.2-0.2c0.1-0.1,0.2-0.1,0.3-0.1c0.2-0.1,0.4-0.1,0.6-0.1l0,0.2c-0.1,0-0.1,0-0.2,0c-0.1,0-0.2,0-0.3,0.1
					c-0.1,0-0.2,0.1-0.2,0.1c-0.1,0-0.1,0.1-0.2,0.1c0,0.1-0.1,0.1-0.1,0.2c0,0.1,0,0.2,0.1,0.4c0,0.2,0.1,0.3,0.2,0.3
					c0.1,0.1,0.1,0.1,0.2,0.2c0.1,0,0.1,0,0.2,0c0.1,0,0.2,0,0.2-0.1c0,0,0.1,0,0.1-0.1c0,0,0.1,0,0.1-0.1c0,0,0.1,0,0.1-0.1
					c0,0,0.1,0,0.1-0.1L443.7,99.7z"/>
				<path class="st29" d="M445.4,99.3c-0.1,0-0.1,0-0.2,0c0,0-0.1-0.1-0.1-0.1c0,0.1-0.1,0.2-0.2,0.3c-0.1,0.1-0.2,0.1-0.3,0.2
					c-0.1,0-0.2,0-0.3,0.1c-0.1,0-0.2,0-0.2,0c-0.1,0-0.1-0.1-0.2-0.1c-0.1-0.1-0.1-0.1-0.1-0.2c0-0.1,0-0.2,0-0.2
					c0-0.1,0-0.1,0.1-0.2c0-0.1,0.1-0.1,0.2-0.1c0.1,0,0.2-0.1,0.2-0.1l0.5-0.2c0-0.1-0.1-0.2-0.1-0.3c0-0.1-0.1-0.1-0.1-0.1
					c0,0-0.1,0-0.2,0c-0.1,0-0.1,0-0.2,0.1c0,0-0.1,0-0.1,0.1c0,0-0.1,0-0.1,0.1c0,0-0.1,0-0.1,0.1c0,0-0.1,0-0.1,0.1l-0.1-0.1
					c0.1-0.1,0.1-0.1,0.2-0.2c0.1,0,0.2-0.1,0.3-0.1c0.1,0,0.2-0.1,0.3-0.1c0.1,0,0.2,0,0.2,0c0.1,0,0.1,0.1,0.2,0.2
					c0.1,0.1,0.1,0.2,0.2,0.4l0,0l0.1,0.3c0,0.1,0,0.1,0.1,0.1c0,0,0,0.1,0.1,0.1c0,0,0,0,0.1,0c0,0,0,0,0.1,0L445.4,99.3z
					 M444.8,98.6l-0.5,0.2c-0.1,0-0.1,0-0.2,0.1c-0.1,0-0.1,0.1-0.1,0.1c0,0-0.1,0.1-0.1,0.1c0,0.1,0,0.1,0,0.2
					c0,0.1,0.1,0.1,0.1,0.2c0,0,0.1,0.1,0.1,0.1c0,0,0.1,0,0.2,0c0.1,0,0.1,0,0.2,0c0.1,0,0.2-0.1,0.3-0.1c0.1-0.1,0.1-0.1,0.1-0.2
					c0-0.1,0-0.1,0-0.2C444.9,98.8,444.9,98.7,444.8,98.6L444.8,98.6z"/>
				<path class="st29" d="M445.7,99.2l-0.5-1.5l0.2-0.1l0.5,1.4l0.9-0.3l0,0.1L445.7,99.2z"/>
				<path class="st29" d="M448.2,98.3c-0.1,0.1-0.1,0.1-0.2,0.2c-0.1,0.1-0.2,0.1-0.3,0.1c-0.1,0-0.2,0.1-0.3,0.1
					c-0.1,0-0.2,0-0.3,0c-0.1,0-0.2-0.1-0.2-0.2c-0.1-0.1-0.1-0.2-0.2-0.4c-0.1-0.2-0.1-0.3-0.1-0.4c0-0.1,0-0.2,0.1-0.3
					c0-0.1,0.1-0.1,0.2-0.2c0.1-0.1,0.2-0.1,0.3-0.1c0.2-0.1,0.4-0.1,0.6-0.1l0,0.2c-0.1,0-0.1,0-0.2,0c-0.1,0-0.2,0-0.3,0.1
					c-0.1,0-0.2,0.1-0.2,0.1c-0.1,0-0.1,0.1-0.2,0.1c0,0.1-0.1,0.1-0.1,0.2c0,0.1,0,0.2,0.1,0.4c0,0.2,0.1,0.3,0.2,0.3
					c0.1,0.1,0.1,0.1,0.2,0.2c0.1,0,0.1,0,0.2,0c0.1,0,0.2,0,0.2-0.1c0,0,0.1,0,0.1-0.1c0,0,0.1,0,0.1-0.1c0,0,0.1,0,0.1-0.1
					c0,0,0.1,0,0.1-0.1L448.2,98.3z"/>
				<path class="st29" d="M449.6,97.7C449.6,97.7,449.7,97.7,449.6,97.7c0.1,0,0.2,0,0.2,0c0,0,0.1,0,0.1,0c0,0,0.1,0,0.1,0
					c0.1,0,0.1,0,0.2-0.1c0,0,0.1,0,0.1-0.1c0,0,0-0.1,0-0.1c0,0,0-0.1,0-0.2c0-0.1-0.1-0.1-0.1-0.2c0,0-0.1-0.1-0.1-0.1
					c0,0-0.1,0-0.1,0c0,0-0.1,0-0.2,0l-0.3,0.1l0-0.1l0.3-0.1c0.1,0,0.1,0,0.1-0.1c0,0,0.1,0,0.1-0.1c0,0,0-0.1,0-0.1
					c0,0,0-0.1,0-0.2c0-0.1,0-0.1-0.1-0.1c0,0-0.1-0.1-0.1-0.1c0,0-0.1,0-0.1,0c0,0-0.1,0-0.2,0c0,0-0.1,0-0.1,0c0,0-0.1,0-0.1,0.1
					c0,0-0.1,0-0.1,0.1c0,0-0.1,0-0.1,0.1l-0.1-0.1c0,0,0,0,0.1-0.1c0,0,0.1,0,0.1-0.1c0,0,0.1,0,0.1-0.1c0.1,0,0.1,0,0.1-0.1
					c0.1,0,0.2,0,0.2-0.1c0.1,0,0.1,0,0.2,0c0.1,0,0.1,0,0.1,0.1c0,0,0.1,0.1,0.1,0.2c0,0.1,0,0.1,0,0.2c0,0,0,0.1,0,0.1
					c0,0,0,0.1,0,0.1c0,0,0,0.1-0.1,0.1c0,0,0.1,0,0.1,0c0,0,0.1,0,0.1,0.1c0,0,0.1,0.1,0.1,0.1c0,0,0,0.1,0.1,0.1
					c0,0.1,0,0.2,0,0.2c0,0.1,0,0.1-0.1,0.2c0,0-0.1,0.1-0.1,0.1c-0.1,0-0.1,0.1-0.2,0.1c0,0-0.1,0-0.1,0c-0.1,0-0.1,0-0.2,0
					c-0.1,0-0.1,0-0.1,0c0,0-0.1,0-0.1,0L449.6,97.7z"/>
				<path class="st29" d="M451.6,97.3c-0.1,0-0.2,0-0.2,0.1c-0.1,0-0.2,0-0.2,0c-0.1,0-0.1-0.1-0.2-0.2c-0.1-0.1-0.1-0.2-0.2-0.4
					c-0.1-0.2-0.1-0.3-0.1-0.4c0-0.1,0-0.2,0.1-0.3c0-0.1,0.1-0.1,0.2-0.2c0.1,0,0.1-0.1,0.2-0.1c0.1,0,0.2,0,0.2-0.1
					c0.1,0,0.2,0,0.2,0c0.1,0,0.1,0.1,0.2,0.2c0.1,0.1,0.1,0.2,0.2,0.4c0.1,0.2,0.1,0.3,0.1,0.4c0,0.1,0,0.2-0.1,0.3
					c0,0.1-0.1,0.1-0.2,0.2C451.7,97.2,451.7,97.3,451.6,97.3z M451.5,97.2c0,0,0.1,0,0.1,0c0,0,0.1,0,0.1-0.1c0,0,0.1-0.1,0.1-0.1
					c0,0,0-0.1,0-0.1c0-0.1,0-0.1,0-0.2c0-0.1,0-0.2-0.1-0.3c-0.1-0.2-0.1-0.3-0.2-0.4c-0.1-0.1-0.1-0.1-0.2-0.2c-0.1,0-0.1,0-0.2,0
					c-0.1,0-0.1,0-0.2,0c-0.1,0-0.1,0-0.2,0.1c-0.1,0-0.1,0.1-0.1,0.1c0,0.1,0,0.1,0,0.2c0,0.1,0,0.2,0.1,0.4c0,0.1,0.1,0.2,0.1,0.3
					c0,0.1,0.1,0.1,0.1,0.2c0,0,0.1,0.1,0.1,0.1c0,0,0.1,0,0.1,0c0,0,0.1,0,0.1,0C451.5,97.2,451.5,97.2,451.5,97.2z"/>
				<path class="st29" d="M453.1,96.8c-0.1,0-0.2,0-0.2,0.1c-0.1,0-0.2,0-0.2,0c-0.1,0-0.1-0.1-0.2-0.2c-0.1-0.1-0.1-0.2-0.2-0.4
					c-0.1-0.2-0.1-0.3-0.1-0.4c0-0.1,0-0.2,0.1-0.3c0-0.1,0.1-0.1,0.2-0.2c0.1,0,0.1-0.1,0.2-0.1c0.1,0,0.2,0,0.2-0.1
					c0.1,0,0.2,0,0.2,0c0.1,0,0.1,0.1,0.2,0.2c0.1,0.1,0.1,0.2,0.2,0.4c0.1,0.2,0.1,0.3,0.1,0.4c0,0.1,0,0.2-0.1,0.3
					c0,0.1-0.1,0.1-0.2,0.2C453.2,96.7,453.2,96.8,453.1,96.8z M453,96.7c0,0,0.1,0,0.1,0c0,0,0.1,0,0.1-0.1c0,0,0.1-0.1,0.1-0.1
					c0,0,0-0.1,0-0.1c0-0.1,0-0.1,0-0.2c0-0.1,0-0.2-0.1-0.3c-0.1-0.2-0.1-0.3-0.2-0.4c-0.1-0.1-0.1-0.1-0.2-0.2c-0.1,0-0.1,0-0.2,0
					c-0.1,0-0.1,0-0.2,0c-0.1,0-0.1,0-0.2,0.1c-0.1,0-0.1,0.1-0.1,0.1c0,0.1,0,0.1,0,0.2c0,0.1,0,0.2,0.1,0.4c0,0.1,0.1,0.2,0.1,0.3
					c0,0.1,0.1,0.1,0.1,0.2c0,0,0.1,0.1,0.1,0.1c0,0,0.1,0,0.1,0c0,0,0.1,0,0.1,0S453,96.7,453,96.7z"/>
				<path class="st29" d="M454.6,96.3c-0.1,0-0.2,0-0.2,0.1c-0.1,0-0.2,0-0.2,0c-0.1,0-0.1-0.1-0.2-0.2c-0.1-0.1-0.1-0.2-0.2-0.4
					c-0.1-0.2-0.1-0.3-0.1-0.4c0-0.1,0-0.2,0.1-0.3c0-0.1,0.1-0.1,0.2-0.2c0.1,0,0.1-0.1,0.2-0.1c0.1,0,0.2,0,0.2-0.1
					c0.1,0,0.2,0,0.2,0c0.1,0,0.1,0.1,0.2,0.2c0.1,0.1,0.1,0.2,0.2,0.4c0.1,0.2,0.1,0.3,0.1,0.4c0,0.1,0,0.2-0.1,0.3
					c0,0.1-0.1,0.1-0.2,0.2C454.7,96.3,454.7,96.3,454.6,96.3z M454.5,96.2c0,0,0.1,0,0.1,0c0,0,0.1,0,0.1-0.1c0,0,0.1-0.1,0.1-0.1
					c0,0,0-0.1,0-0.1c0-0.1,0-0.1,0-0.2c0-0.1,0-0.2-0.1-0.3c-0.1-0.2-0.1-0.3-0.2-0.4c-0.1-0.1-0.1-0.1-0.2-0.2c-0.1,0-0.1,0-0.2,0
					c-0.1,0-0.1,0-0.2,0c-0.1,0-0.1,0-0.2,0.1c-0.1,0-0.1,0.1-0.1,0.1c0,0.1,0,0.1,0,0.2c0,0.1,0,0.2,0.1,0.4c0,0.1,0.1,0.2,0.1,0.3
					c0,0.1,0.1,0.1,0.1,0.2c0,0,0.1,0.1,0.1,0.1c0,0,0.1,0,0.1,0c0,0,0.1,0,0.1,0C454.4,96.2,454.5,96.2,454.5,96.2z"/>
			</g>
		</g>
		<g>
			<path class="st0" d="M508.3,75.3c-0.1-0.3-0.3-1-0.6-1.9c4.1-3.2,6.5-7.4,7.5-8.4c0.8-0.8,1.5-1.1,1.9-1.2
				c0.7,0.3,1.1,0.4,1.1,0.4l2.7-3.2c0,0-1.7-1.6-2.8-2.9c-1.9-2.4-15-10.3-24.8-12.8c-9.8-2.4-15-4.4-15-4.4s-4.9-2.7-13.1-8.5
				c-8.3-5.8-22.8-10.6-25.9-10.5c-1.7,0.1-4-0.2-4-0.2l-0.7,4.1l0,0l0,0c0,0,0.4,0.2,1.1,0.6c0.3,0.4,0.5,1.1,0.4,2.2
				c-0.1,1.5-1.7,6-1.5,11.2c-0.9,0.3-1.5,0.6-1.9,0.8c-1.6,0.7,1.4,3.8,2.6,4.1c0,0,0,0,0,0c1.1,3.8,3.6,7.6,8.6,10.8
				c13.1,8.2,23.1-1.1,28.4-8.4c0.9,0.3,1.8,0.7,2.7,1c0.9,0.5,1.7,0.9,2.5,1.4c-2.1,8.7-2.6,22.4,12.2,27
				c5.6,1.7,10.2,1.1,13.8-0.5c0,0,0,0,0,0C504.5,76.7,508.8,76.9,508.3,75.3z M511.4,62.2c0,0-1.1,4.8-4.7,8.6
				c-1.5-3.7-3.9-8.8-6.9-12.1c-0.6-0.6-2-1.6-4-2.9c6.1,2.3,11.6,4.3,15.7,5.9C511.4,61.8,511.4,62,511.4,62.2z M508.4,56.2
				c-7.1-2.7-16.3-6.2-25.4-9.4C489,45.6,502.4,50.7,508.4,56.2z M470.7,41.1c-8.4-4.7-17-9.4-23.7-13.1
				C455.1,29,467.7,35.8,470.7,41.1z M440.5,29.7c0.1-0.2,0.2-0.3,0.4-0.4c3.8,2.1,9,4.9,14.7,8.1c-2.3-0.7-4-1.1-4.8-1.1
				c-4.4-0.2-9.8,1.3-13.6,2.6C437.6,33.7,440.5,29.7,440.5,29.7z M448.7,55.2c-7-3.3-10.1-7.4-11.1-11.4c3.7-1.7,10.5-5.3,13.4-4.5
				c1.3,0.3,9.2,3.2,19.3,6.9C466.5,52.4,456.7,58.9,448.7,55.2z M486.7,72.7c-8-3.7-9.5-15.3-7.2-22.2c9.4,5.2,16.7,9.3,17.8,10.1
				c2.5,1.7,4.2,9.3,5.3,13.1C498.9,75.5,493.8,75.8,486.7,72.7z"/>
			<g>
				<path class="st30" d="M521.1,58.1c0,0-63.1-24.4-70.2-24.7c-7-0.4-16.5,3.7-18.1,4.4c-1.6,0.7,1.4,3.8,2.6,4.1
					c1.2,0.2,11.9-6.4,15.7-5.3s67.3,24.9,67.3,24.9L521.1,58.1z"/>
				<path class="st31" d="M435.4,18.8c0,0,59.7,31.9,64.5,37c4.8,5.1,8,14.9,8.5,16.6c0.5,1.7-3.8,1.4-4.8,0.6
					c-1-0.8-2.9-13.2-6.2-15.4c-3.2-2.2-62.8-34.8-62.8-34.8L435.4,18.8z"/>
				<path class="st7" d="M518.3,55.2c-1.9-2.4-15-10.3-24.8-12.8c-9.8-2.4-15-4.4-15-4.4s-4.9-2.7-13.1-8.5
					c-8.3-5.8-22.8-10.6-25.9-10.5c-1.7,0.1-4-0.2-4-0.2l-0.7,4.1c0,0,1.6-0.2,1.5,2.8c-0.2,3-6.4,17.9,7.9,26.8
					c14.3,8.9,24.9-3,29.7-10.3c0.3-0.7,0.6-0.3,2.5,0.5c1.9,0.9,2.3,0.9,2,1.5c-2.4,8.4-4.5,24.2,11.6,29.2
					c16.1,5,23.3-9.4,25.5-11.5c2.2-2.1,3.1-0.7,3.1-0.7l2.7-3.2C521.1,58.1,519.3,56.5,518.3,55.2z M448.8,52.4
					c-20-9.4-8.1-25.5-8.1-25.5c4.5-6.9,33.2,7.7,30.7,14.4C469,47.9,457.8,56.5,448.8,52.4z M486.9,69.8c-9-4.1-9.8-18.2-6.3-24.4
					c3.5-6.2,33.2,5.9,30.9,13.9C511.5,59.3,507,78.8,486.9,69.8z"/>
			</g>
		</g>
		<g>
			<path class="st0" d="M131.5,62.5l-25.9-18.1c-1.9-1.3-4.4-1-5.6,0.8l-45,64.3c-1.2,1.8-0.7,4.2,1.2,5.6L82,133.1
				c1.9,1.3,4.4,1,5.6-0.8l45-64.3C133.9,66.3,133.3,63.8,131.5,62.5z"/>
			<g>
				<g>
					<path class="st32" d="M85.3,129.6c-1.2,1.8-3.7,2.1-5.6,0.8l-25.9-18.1c-1.9-1.3-2.4-3.8-1.2-5.6l45-64.3
						c1.2-1.8,3.7-2.1,5.6-0.8l25.9,18.1c1.9,1.3,2.4,3.8,1.2,5.6L85.3,129.6z"/>
					
						<rect x="72.9" y="54.1" transform="matrix(0.8193 0.5734 -0.5734 0.8193 66.2264 -36.3895)" class="st33" width="35.9" height="65.5"/>
					<path class="st14" d="M117,58.4c-0.3,0.4-0.9,0.6-1.4,0.2l-6.7-4.7c-0.4-0.3-0.6-0.9-0.2-1.4l0,0c0.3-0.4,0.9-0.6,1.4-0.2
						l6.7,4.7C117.2,57.3,117.3,57.9,117,58.4L117,58.4z"/>
					<path class="st14" d="M72.6,120.4c-0.9,1.4-2.5,1.9-3.5,1.2l-3.6-2.5c-1-0.7-1-2.3,0-3.7l0,0c0.9-1.4,2.5-1.9,3.5-1.2l3.6,2.5
						C73.6,117.4,73.6,119.1,72.6,120.4L72.6,120.4z"/>
					<circle class="st34" cx="119.4" cy="58.3" r="1"/>
					<circle class="st14" cx="117.7" cy="60.7" r="1"/>
				</g>
			</g>
		</g>
	</g>
	<circle class="st35" cx="335.7" cy="66.2" r="40"/>
	<polygon class="st4" points="356.1,51 351,45.9 335.7,61.2 320.5,45.9 315.4,51 330.7,66.2 315.4,81.5 320.5,86.6 335.7,71.3 
		351,86.6 356.1,81.5 340.8,66.2 	"/>
</g>
</svg>
